custom-analysis
version=1
nRows=7
nColumns=42
inDegrees=no

This file contains tibia displacement and acting force.

Units are S.I. units (seconds, meters, Newtons, ...)
Angles are in degrees.

endheader
time	APT	SIT	knee_angle	aACL_R_force	pACL_R_force	aPCL_R_force	pPCL_R_force	aMCL_R_force	mMCL_R_force	pMCL_R_force	aLCL_R_force	mLCL_R_force	pLCL_R_force	aACL_R_length	pACL_R_length	aPCL_R_length	pPCL_R_length	aMCL_R_length	mMCL_R_length	pMCL_R_length	aLCL_R_length	mLCL_R_length	pLCL_R_length	aACL_R_strain	pACL_R_strain	aPCL_R_strain	pPCL_R_strain	aMCL_R_strain	mMCL_R_strain	pMCL_R_strain	aLCL_R_strain	mLCL_R_strain	pLCL_R_strain	femur_lat_meniscii_force_r	femur_lat_meniscii_torque_r	femur_med_meniscii_force_r	femur_med_meniscii_torque_r	femur_lat_tibia_force_r	femur_lat_tibia_torque_r	femur_med_tibia_force_r	femur_med_tibia_torque_r
      0.24360016	      0.00144710	      0.00038732	      1.66574369	     29.64076567	     53.18304050	      0.00000000	      0.00000000	      0.00000000	      1.70265582	     12.45766179	      1.76684160	      0.00000000	      2.35000896	      0.03294555	      0.02725016	      0.02839745	      0.02885222	      0.05598555	      0.06087478	      0.06324413	      0.05617433	      0.05468313	      0.05286305	      0.06257110	      0.07458835	     -0.08676070	     -0.04106580	     -0.03518104	      0.01808356	      0.04143286	      0.00352164	     -0.02903967	      0.00994115	     91.64352797	     16.91200263	     95.63329265	     14.29435747	      0.00000000	      0.00000000	      3.30607841	      0.08502327
      0.24679157	      0.00144723	      0.00038570	      1.66574369	     30.12244849	     53.74547123	      0.00000000	      0.00000000	      0.00000000	      2.85075412	     13.57977928	      3.26895039	      0.00000000	      3.86037332	      0.03294795	      0.02725289	      0.02839881	      0.02885330	      0.05598365	      0.06087300	      0.06324261	      0.05618037	      0.05468936	      0.05286936	      0.06264848	      0.07469577	     -0.08671685	     -0.04102997	     -0.03521374	      0.01805376	      0.04140780	      0.00362955	     -0.02892902	      0.01006181	     88.74609738	     16.33207060	     92.93220638	     13.86235476	      0.00000000	      0.00000000	      3.34324548	      0.08599684
      0.24917367	      0.00144696	      0.00038236	      1.66574369	     29.83432798	     53.54085958	      0.00000000	      0.00000000	      0.00000000	      1.81681303	     12.57122740	      1.77519810	      0.00000000	      2.38077361	      0.03295116	      0.02725630	      0.02840192	      0.02885624	      0.05598438	      0.06087382	      0.06324360	      0.05618705	      0.05469618	      0.05287625	      0.06275217	      0.07483017	     -0.08661694	     -0.04093220	     -0.03520124	      0.01806751	      0.04142404	      0.00374887	     -0.02880787	      0.01019336	     91.00550935	     16.77699444	     95.45392016	     14.27118782	      0.00000000	      0.00000000	      3.02746371	      0.07787594
      0.25155577	      0.00144730	      0.00038067	      1.66574369	     30.02216898	     53.79316438	      0.00000000	      0.00000000	      0.00000000	      2.15628929	     12.90466234	      2.20763443	      0.00000000	      2.82235771	      0.03295331	      0.02725863	      0.02840333	      0.02885747	      0.05598360	      0.06087312	      0.06324309	      0.05619191	      0.05470119	      0.05288132	      0.06282144	      0.07492235	     -0.08657161	     -0.04089132	     -0.03521469	      0.01805573	      0.04141566	      0.00383566	     -0.02871895	      0.01029026	     89.80366330	     16.56778714	     94.70068952	     14.15533445	      0.00000000	      0.00000000	      2.96168901	      0.07619168
      0.25495438	      0.00144781	      0.00037740	      1.66574369	     29.97105106	     53.84095361	      0.00000000	      0.00000000	      0.00000000	      1.73929001	     12.49896315	      1.60674431	      0.00000000	      2.23734539	      0.03295694	      0.02726249	      0.02840617	      0.02886008	      0.05598340	      0.06087303	      0.06324327	      0.05619971	      0.05470921	      0.05288943	      0.06293842	      0.07507427	     -0.08648015	     -0.04080451	     -0.03521801	      0.01805424	      0.04141869	      0.00397500	     -0.02857655	      0.01044525	     90.35433403	     16.69303635	     95.80144696	     14.33396885	      0.00000000	      0.00000000	      2.71890065	      0.06994961
      0.25795918	      0.00144887	      0.00037593	      1.66574369	     30.33799731	     54.28165939	      0.00000000	      0.00000000	      0.00000000	      2.49574050	     13.24065247	      2.64165152	      0.00000000	      3.28358276	      0.03295925	      0.02726499	      0.02840721	      0.02886090	      0.05598194	      0.06087163	      0.06324215	      0.05620507	      0.05471477	      0.05289508	      0.06301309	      0.07517306	     -0.08644672	     -0.04077717	     -0.03524333	      0.01803087	      0.04140020	      0.00407075	     -0.02847776	      0.01055315	     88.08298192	     16.23219414	     94.06758764	     14.06713612	      0.00000000	      0.00000000	      2.72862614	      0.07021009
      0.26096398	      0.00144971	      0.00037230	      1.66574369	     30.03011885	     54.07648839	      0.00000000	      0.00000000	      0.00000000	      1.26853293	     12.04470943	      0.92636591	      0.00000000	      1.58796399	      0.03296319	      0.02726908	      0.02841022	      0.02886375	      0.05598253	      0.06087231	      0.06324309	      0.05621265	      0.05472256	      0.05290296	      0.06314002	      0.07533450	     -0.08634999	     -0.04068253	     -0.03523314	      0.01804227	      0.04141567	      0.00420610	     -0.02833942	      0.01070366	     90.66405889	     16.67273664	     97.15046272	     14.57598223	      0.00000000	      0.00000000	      2.39286683	      0.06157087
